G04 ================== begin FILE IDENTIFICATION RECORD ==================*
G04 Layout Name:  pcb_proiect.brd*
G04 Film Name:    BOTTOM*
G04 File Format:  Gerber RS274X*
G04 File Origin:  Cadence Allegro 17.2-S025*
G04 Origin Date:  Sun Dec 15 15:18:33 2024*
G04 *
G04 Layer:  ETCH/BOTTOM*
G04 Layer:  PIN/BOTTOM*
G04 Layer:  VIA CLASS/BOTTOM*
G04 *
G04 Offset:    (0.0000 0.0000)*
G04 Mirror:    No*
G04 Mode:      Positive*
G04 Rotation:  0*
G04 FullContactRelief:  No*
G04 UndefLineWidth:     0.1000*
G04 ================== end FILE IDENTIFICATION RECORD ====================*
%FSLAX25Y25*MOMM*%
%IR0*IPPOS*OFA0.00000B0.00000*MIA0B0*SFA1.00000B1.00000*%
%ADD11C,.6*%
%ADD10C,1.*%
%ADD12C,.4*%
%ADD13C,.45*%
%ADD14C,.65*%
G75*
%LPD*%
G75*
G54D10*
X500000Y500000D03*
X3500000Y3500000D03*
G54D11*
X234000Y2086000D03*
X670000Y2351000D03*
X592440Y3719440D03*
X1523000Y959000D03*
X1243000Y1053000D03*
X1065000Y1676000D03*
X1007000Y1844000D03*
X1450000Y3300000D03*
X1649000Y3411000D03*
X1196000Y3515000D03*
X1752000Y606000D03*
X2092290Y1490710D03*
X1927000Y1393000D03*
X2071800Y3233000D03*
X1856000Y3235000D03*
X2615000Y1012000D03*
X2793000Y1588000D03*
X2921000Y1957000D03*
X3199000Y2097000D03*
X2609000Y2490000D03*
X2994350Y2321350D03*
X3099500Y3217500D03*
X2522000Y2726000D03*
X2757000Y2771000D03*
X3046000Y3356000D03*
X3279000Y342000D03*
X3522000Y2187000D03*
X3413000Y1906000D03*
X3827000Y3082000D03*
X3764000Y3394000D03*
X3608000Y3687000D03*
X3279000Y3394000D03*
G54D12*
G01X1007000Y1844000D02*
Y2046000D01*
X967000Y2086000D01*
X234000D01*
G01X2522000Y2726000D02*
X2147000Y2351000D01*
X670000D01*
G01X592440Y3719440D02*
Y3264440D01*
X677880Y3179000D01*
X1800000D01*
X1856000Y3235000D01*
G01X1523000Y959000D02*
X1460300D01*
X1365420Y1053880D01*
Y1462420D01*
X1393710Y1490710D01*
X2092290D01*
G01X1243000Y1053000D02*
X1477000Y819000D01*
X1539000D01*
X1752000Y606000D01*
G01X1065000Y1676000D02*
X1662000D01*
X2757000Y2771000D01*
G01X1450000Y3300000D02*
X1561000Y3411000D01*
X1649000D01*
G01X2071800Y3233000D02*
X2923000D01*
X3046000Y3356000D01*
G01X2615000Y1012000D02*
X2793000Y1190000D01*
Y1588000D01*
G01X2609000Y2490000D02*
X2945920D01*
X3199000Y2236920D01*
Y2097000D01*
G01X2994350Y2321350D02*
Y2177650D01*
X3266000Y1906000D01*
X3413000D01*
G54D13*
G01X2921000Y1957000D02*
X2357000Y1393000D01*
X1927000D01*
G01X3522000Y2187000D02*
X3664000D01*
X3709000Y2232000D01*
Y2784000D01*
X3827000Y2902000D01*
Y3082000D01*
G54D14*
G01X3608000Y3687000D02*
X3454000Y3841000D01*
X1789000D01*
X1656000Y3708000D01*
Y3580000D01*
X1591000Y3515000D01*
X1196000D01*
G01X3764000Y3394000D02*
X3187000Y2817000D01*
Y2384110D01*
X3481610Y2089500D01*
X3510500D01*
X3670040Y1929960D01*
Y1838040D01*
X3279000Y1447000D01*
Y342000D01*
G01Y3394000D02*
X3155680Y3270680D01*
X3152680D01*
X3099500Y3217500D01*
M02*
