M48
METRIC,TZ
T01C.4
;LEADER: 12 
;HEADER: 
;CODE  : ASCII 
;FILE  : DRILLS-1-2.drl for  ... layers TOP and BOTTOM
;DESIGN: pcb_proiect.brd
;T01 Holesize 1. = 0.400000 Tolerance = +0.000000/-0.000000 PLATED MM Quantity = 32
%
G90
T01
X2615000Y1012000
X2793000Y1588000
X2757000Y2771000
X1065000Y1676000
X2994350Y2321350
X3413000Y1906000
X2522000Y2726000
X670000Y2351000
X1921000Y3224440
X592440Y3719440
X2609000Y2490000
X3199000Y2097000
X1007000Y1775000
X234000Y2086000
X3099500Y3217500
X3279000Y3394000
X3608000Y3687000
X1196000Y3515000
X3764000Y3394000
X3279000Y342000
X3046000Y3356000
X2071800Y3233000
X1927000Y1393000
X2921000Y1957000
X3827000Y3082000
X3522000Y2187000
X1752000Y606000
X1243000Y1053000
X1649000Y3411000
X1450000Y3300000
X1523000Y959000
X2092290Y1490710
M30
