G04 ================== begin FILE IDENTIFICATION RECORD ==================*
G04 Layout Name:  pcb_proiect.brd*
G04 Film Name:    SMTOP*
G04 File Format:  Gerber RS274X*
G04 File Origin:  Cadence Allegro 17.2-S025*
G04 Origin Date:  Sun Dec 15 15:29:15 2024*
G04 *
G04 Layer:  RIGID FLEX/ZONE_OUTLINE*
G04 Layer:  VIA CLASS/SOLDERMASK_TOP*
G04 Layer:  PIN/SOLDERMASK_TOP*
G04 Layer:  PACKAGE GEOMETRY/SOLDERMASK_TOP*
G04 Layer:  DRC ERROR CLASS/SOLDERMASK_TOP*
G04 Layer:  BOARD GEOMETRY/SOLDERMASK_TOP*
G04 *
G04 Offset:    (0.0000 0.0000)*
G04 Mirror:    No*
G04 Mode:      Positive*
G04 Rotation:  0*
G04 FullContactRelief:  No*
G04 UndefLineWidth:     0.1000*
G04 ================== end FILE IDENTIFICATION RECORD ====================*
%FSLAX25Y25*MOMM*%
%IR0*IPPOS*OFA0.00000B0.00000*MIA0B0*SFA1.00000B1.00000*%
%ADD13R,1.05X.6*%
%ADD17R,.6X1.05*%
%ADD14C,.8*%
%ADD12R,2.1X1.4*%
%ADD19R,1.25X1.1*%
%ADD18R,1.45X1.*%
%ADD22R,1.45X1.1*%
%ADD16R,1.X1.45*%
%ADD23R,1.1X1.45*%
%ADD20R,1.X2.85*%
%ADD10C,2.2*%
%ADD21R,5.5X5.9*%
%ADD11R,1.4X1.4*%
%ADD15R,3.048X1.9304*%
%LPD*%
G75*
G54D10*
X500000Y500000D03*
X3500000Y3500000D03*
G54D11*
X309000Y1144000D03*
X539000D03*
G54D20*
X2316000Y1748000D03*
X2087000D03*
X1858000D03*
G54D21*
X2087000Y2423000D03*
G54D12*
X424000Y1709000D03*
G54D22*
X2983000Y2535000D03*
Y2715000D03*
G54D13*
X926000Y1346000D03*
Y1536000D03*
X454000Y2351000D03*
X234000Y2256000D03*
Y2446000D03*
X743000Y3362000D03*
Y3552000D03*
X1272000Y1775000D03*
X1146000Y1441000D03*
X1492000Y1870000D03*
X1272000Y1965000D03*
X963000Y3457000D03*
X1930000Y2976000D03*
X1710000Y2881000D03*
Y3071000D03*
X2785000Y2175000D03*
X2565000Y2080000D03*
Y2270000D03*
X3761000Y1721000D03*
X3541000Y1626000D03*
Y1816000D03*
X3694000Y3082000D03*
X3474000Y2987000D03*
Y3177000D03*
G54D23*
X3188000Y3005000D03*
X3008000D03*
G54D14*
X234000Y2086000D03*
X670000Y2351000D03*
X592440Y3719440D03*
X1523000Y959000D03*
X1243000Y1053000D03*
X1065000Y1676000D03*
X1007000Y1844000D03*
X1450000Y3300000D03*
X1649000Y3411000D03*
X1196000Y3515000D03*
X1752000Y606000D03*
X2092290Y1490710D03*
X1927000Y1393000D03*
X2071800Y3233000D03*
X1856000Y3235000D03*
X2615000Y1012000D03*
X2793000Y1588000D03*
X2921000Y1957000D03*
X3199000Y2097000D03*
X2609000Y2490000D03*
X2994350Y2321350D03*
X3099500Y3217500D03*
X2522000Y2726000D03*
X2757000Y2771000D03*
X3046000Y3356000D03*
X3279000Y342000D03*
X3522000Y2187000D03*
X3413000Y1906000D03*
X3827000Y3082000D03*
X3764000Y3394000D03*
X3608000Y3687000D03*
X3279000Y3394000D03*
G54D15*
X336000Y3120000D03*
Y3719440D03*
X3675000Y265560D03*
Y865000D03*
G54D16*
X807000Y2755000D03*
X230000Y2779000D03*
X420000D03*
X730000Y3005000D03*
X920000D03*
X1573000Y261000D03*
X1383000D03*
X1374000Y548000D03*
X1564000D03*
X1139000Y2492000D03*
X1329000D03*
X1456000Y2212000D03*
X1266000D03*
X1381000Y3062000D03*
X1191000D03*
X1468000Y2779000D03*
X1278000D03*
X997000Y2755000D03*
X1196000Y3755000D03*
X1386000D03*
X2035000Y361000D03*
X1845000D03*
X2367000Y1192000D03*
X2177000D03*
X2441000Y2923000D03*
X2374000Y3654000D03*
X1810000Y3753000D03*
X2000000D03*
X2001000Y3409000D03*
X1811000D03*
X3148000Y539000D03*
X2924000Y370000D03*
X2734000D03*
X2708000Y644000D03*
X2518000D03*
X3172000Y1313000D03*
X2982000D03*
X3066000Y1582000D03*
X3076000Y1904000D03*
X2631000Y2923000D03*
X2564000Y3654000D03*
X3338000Y539000D03*
X3256000Y1582000D03*
X3258000Y2452000D03*
X3448000D03*
X3266000Y1904000D03*
X3292000Y2726000D03*
X3482000D03*
G54D17*
X1618000Y1399000D03*
X1523000Y1179000D03*
X1713000D03*
G54D18*
X2329000Y227000D03*
Y417000D03*
X2296000Y3179000D03*
Y3369000D03*
X2935000Y1013000D03*
Y823000D03*
X2632000Y1588000D03*
Y1778000D03*
X2719000Y3213000D03*
Y3403000D03*
X3247000Y823000D03*
Y1013000D03*
X3517000Y1174000D03*
Y1364000D03*
X3695000Y2220000D03*
Y2030000D03*
X3723000Y2487000D03*
Y2677000D03*
G54D19*
X2009500Y861000D03*
X2244500D03*
X3177500Y3687000D03*
X2942500D03*
M02*
