G04 ================== begin FILE IDENTIFICATION RECORD ==================*
G04 Layout Name:  pcb_proiect.brd*
G04 Film Name:    TOP*
G04 File Format:  Gerber RS274X*
G04 File Origin:  Cadence Allegro 17.2-S025*
G04 Origin Date:  Sun Dec 15 15:18:33 2024*
G04 *
G04 Layer:  ETCH/TOP*
G04 Layer:  PIN/TOP*
G04 Layer:  VIA CLASS/TOP*
G04 *
G04 Offset:    (0.0000 0.0000)*
G04 Mirror:    No*
G04 Mode:      Positive*
G04 Rotation:  0*
G04 FullContactRelief:  No*
G04 UndefLineWidth:     0.1000*
G04 ================== end FILE IDENTIFICATION RECORD ====================*
%FSLAX25Y25*MOMM*%
%IR0*IPPOS*OFA0.00000B0.00000*MIA0B0*SFA1.00000B1.00000*%
%ADD13R,1.05X.6*%
%ADD17R,.6X1.05*%
%ADD14C,.7*%
%ADD12R,2.X1.3*%
%ADD19R,1.25X1.1*%
%ADD18R,1.45X1.*%
%ADD22R,1.45X1.1*%
%ADD16R,1.X1.45*%
%ADD23R,1.1X1.45*%
%ADD10C,1.*%
%ADD20R,1.X2.85*%
%ADD11R,1.3X1.3*%
%ADD15R,3.048X1.9304*%
%ADD21R,5.55X5.95*%
%ADD24C,.1*%
%ADD25C,.4*%
%ADD26C,.45*%
%ADD27C,.65*%
G75*
%LPD*%
G75*
G54D10*
X500000Y500000D03*
X3500000Y3500000D03*
G54D11*
X309000Y1144000D03*
X539000D03*
G54D20*
X2316000Y1748000D03*
X2087000D03*
X1858000D03*
G54D21*
X2087000Y2423000D03*
G54D12*
X424000Y1709000D03*
G54D22*
X2983000Y2535000D03*
Y2715000D03*
G54D13*
X926000Y1346000D03*
Y1536000D03*
X454000Y2351000D03*
X234000Y2256000D03*
Y2446000D03*
X743000Y3362000D03*
Y3552000D03*
X1272000Y1775000D03*
X1146000Y1441000D03*
X1492000Y1870000D03*
X1272000Y1965000D03*
X963000Y3457000D03*
X1930000Y2976000D03*
X1710000Y2881000D03*
Y3071000D03*
X2785000Y2175000D03*
X2565000Y2080000D03*
Y2270000D03*
X3761000Y1721000D03*
X3541000Y1626000D03*
Y1816000D03*
X3694000Y3082000D03*
X3474000Y2987000D03*
Y3177000D03*
G54D23*
X3188000Y3005000D03*
X3008000D03*
G54D14*
X234000Y2086000D03*
X670000Y2351000D03*
X592440Y3719440D03*
X1523000Y959000D03*
X1243000Y1053000D03*
X1065000Y1676000D03*
X1007000Y1844000D03*
X1450000Y3300000D03*
X1649000Y3411000D03*
X1196000Y3515000D03*
X1752000Y606000D03*
X2092290Y1490710D03*
X1927000Y1393000D03*
X2071800Y3233000D03*
X1856000Y3235000D03*
X2615000Y1012000D03*
X2793000Y1588000D03*
X2921000Y1957000D03*
X3199000Y2097000D03*
X2609000Y2490000D03*
X2994350Y2321350D03*
X3099500Y3217500D03*
X2522000Y2726000D03*
X2757000Y2771000D03*
X3046000Y3356000D03*
X3279000Y342000D03*
X3522000Y2187000D03*
X3413000Y1906000D03*
X3827000Y3082000D03*
X3764000Y3394000D03*
X3608000Y3687000D03*
X3279000Y3394000D03*
G54D24*
G01X546250Y254330D02*
X550750Y264330D01*
X556000Y269330D01*
X562000Y271000D01*
X569500Y267670D01*
X574750Y259330D01*
X576250Y249330D01*
X575500Y239330D01*
X572500Y231000D01*
X557500Y214330D01*
X550750Y202670D01*
X546250Y186000D01*
X544750Y171000D01*
X576250D01*
G01X620740Y271000D02*
X614740Y267670D01*
X610240Y259330D01*
X607240Y249330D01*
X604990Y236000D01*
X604240Y221000D01*
X604990Y206000D01*
X607240Y192670D01*
X610240Y182660D01*
X614740Y174330D01*
X620740Y171000D01*
X626740Y174330D01*
X631240Y182660D01*
X634240Y192670D01*
X636490Y206000D01*
X637240Y221000D01*
X636490Y236000D01*
X634240Y249330D01*
X631240Y259330D01*
X626740Y267670D01*
X620740Y271000D01*
G01X666730Y254330D02*
X671230Y264330D01*
X676480Y269330D01*
X682480Y271000D01*
X689980Y267670D01*
X695230Y259330D01*
X696730Y249330D01*
X695980Y239330D01*
X692980Y231000D01*
X677980Y214330D01*
X671230Y202670D01*
X666730Y186000D01*
X665230Y171000D01*
X696730D01*
G01X750220D02*
Y271000D01*
X722470Y199330D01*
X759970D01*
G01X791710Y204330D02*
X811210D01*
G01X847450Y254330D02*
X851950Y264330D01*
X857200Y269330D01*
X863200Y271000D01*
X870700Y267670D01*
X875950Y259330D01*
X877450Y249330D01*
X876700Y239330D01*
X873700Y231000D01*
X858700Y214330D01*
X851950Y202670D01*
X847450Y186000D01*
X845950Y171000D01*
X877450D01*
G01X921940Y271000D02*
X915940Y267670D01*
X911440Y259330D01*
X908440Y249330D01*
X906190Y236000D01*
X905440Y221000D01*
X906190Y206000D01*
X908440Y192670D01*
X911440Y182660D01*
X915940Y174330D01*
X921940Y171000D01*
X927940Y174330D01*
X932440Y182660D01*
X935440Y192670D01*
X937690Y206000D01*
X938440Y221000D01*
X937690Y236000D01*
X935440Y249330D01*
X932440Y259330D01*
X927940Y267670D01*
X921940Y271000D01*
G01X967930Y254330D02*
X972430Y264330D01*
X977680Y269330D01*
X983680Y271000D01*
X991180Y267670D01*
X996430Y259330D01*
X997930Y249330D01*
X997180Y239330D01*
X994180Y231000D01*
X979180Y214330D01*
X972430Y202670D01*
X967930Y186000D01*
X966430Y171000D01*
X997930D01*
G01X1025920Y186000D02*
X1030420Y177670D01*
X1035670Y172670D01*
X1042420Y171000D01*
X1049170Y174330D01*
X1054420Y181000D01*
X1058170Y192670D01*
X1058920Y206000D01*
X1057420Y219330D01*
X1053670Y227670D01*
X1048420Y234330D01*
X1043170Y236000D01*
X1037920Y234330D01*
X1031170Y227670D01*
X1033420Y271000D01*
X1053670D01*
G01X205250Y832000D02*
Y932000D01*
X239750Y832000D01*
Y932000D01*
G01X296240Y832000D02*
Y898660D01*
G01Y887000D02*
X293240Y893670D01*
X288740Y897000D01*
X283490Y898660D01*
X278240Y895330D01*
X273740Y888670D01*
X270740Y878670D01*
X269240Y865330D01*
X270740Y852000D01*
X273740Y842000D01*
X278240Y835330D01*
X283490Y832000D01*
X288740Y833670D01*
X293240Y838670D01*
X296240Y845330D01*
G01X331730Y843660D02*
X335480Y837000D01*
X340730Y832000D01*
X345230D01*
X349730Y835330D01*
X352730Y840330D01*
X354230Y847000D01*
X353480Y857000D01*
X350480Y862000D01*
X336980Y872000D01*
X333980Y883670D01*
X335480Y892000D01*
X338480Y897000D01*
X342980Y898660D01*
X347480Y897000D01*
X351980Y892000D01*
G01X403220Y932000D02*
Y832000D01*
G01X392720Y898660D02*
X413720D01*
G01X476960Y832000D02*
Y898660D01*
G01Y887000D02*
X473960Y893670D01*
X469460Y897000D01*
X464210Y898660D01*
X458960Y895330D01*
X454460Y888670D01*
X451460Y878670D01*
X449960Y865330D01*
X451460Y852000D01*
X454460Y842000D01*
X458960Y835330D01*
X464210Y832000D01*
X469460Y833670D01*
X473960Y838670D01*
X476960Y845330D01*
G01X512450Y843660D02*
X516200Y837000D01*
X521450Y832000D01*
X525950D01*
X530450Y835330D01*
X533450Y840330D01*
X534950Y847000D01*
X534200Y857000D01*
X531200Y862000D01*
X517700Y872000D01*
X514700Y883670D01*
X516200Y892000D01*
X519200Y897000D01*
X523700Y898660D01*
X528200Y897000D01*
X532700Y892000D01*
G01X572690Y877000D02*
X596690D01*
X594440Y888670D01*
X590690Y895330D01*
X585440Y898660D01*
X580190Y897000D01*
X575690Y892000D01*
X572690Y880330D01*
X571190Y870330D01*
Y860330D01*
X572690Y850330D01*
X576440Y840330D01*
X580940Y833670D01*
X586190Y832000D01*
X591440Y835330D01*
X596690Y845330D01*
G01X684920Y832000D02*
Y932000D01*
X704420Y848670D01*
X723920Y932000D01*
Y832000D01*
G01X778160D02*
Y898660D01*
G01Y887000D02*
X775160Y893670D01*
X770660Y897000D01*
X765410Y898660D01*
X760160Y895330D01*
X755660Y888670D01*
X752660Y878670D01*
X751160Y865330D01*
X752660Y852000D01*
X755660Y842000D01*
X760160Y835330D01*
X765410Y832000D01*
X770660Y833670D01*
X775160Y838670D01*
X778160Y845330D01*
G01X814400Y832000D02*
Y898660D01*
G01Y885330D02*
X818150Y892000D01*
X821900Y897000D01*
X827150Y898660D01*
X830900Y897000D01*
X835400Y892000D01*
G01X885140Y898660D02*
Y832000D01*
G01Y925330D02*
X883640Y927000D01*
Y930330D01*
X885140Y932000D01*
X886640Y930330D01*
Y927000D01*
X885140Y925330D01*
G01X958880Y832000D02*
Y898660D01*
G01Y887000D02*
X955880Y893670D01*
X951380Y897000D01*
X946130Y898660D01*
X940880Y895330D01*
X936380Y888670D01*
X933380Y878670D01*
X931880Y865330D01*
X933380Y852000D01*
X936380Y842000D01*
X940880Y835330D01*
X946130Y832000D01*
X951380Y833670D01*
X955880Y838670D01*
X958880Y845330D01*
G01X812500Y471000D02*
Y571000D01*
X784750Y499330D01*
X822250D01*
G01X847240Y491000D02*
X851740Y479330D01*
X857740Y472670D01*
X864490Y471000D01*
X870490Y472670D01*
X876490Y481000D01*
X880240Y491000D01*
X880990Y501000D01*
X879490Y512660D01*
X874240Y521000D01*
X868990Y524330D01*
X862240D01*
G01X868990D02*
X873490Y529330D01*
X877240Y537660D01*
X878740Y547670D01*
X877240Y557670D01*
X873490Y566000D01*
X866740Y571000D01*
X859990Y569330D01*
X853240Y562670D01*
G01X932980Y471000D02*
Y571000D01*
X905230Y499330D01*
X942730D01*
G01X967720Y471000D02*
Y571000D01*
X982720D01*
X988720Y566000D01*
X993220Y559330D01*
X996970Y549330D01*
X999970Y537660D01*
X1000720Y521000D01*
X999970Y504330D01*
X996970Y492670D01*
X993220Y482660D01*
X988720Y476000D01*
X982720Y471000D01*
X967720D01*
G01X739000Y418670D02*
X734500Y423670D01*
X729250Y427000D01*
X723250D01*
X716500Y422000D01*
X711250Y413670D01*
X707500Y403670D01*
X704500Y387000D01*
X703750Y372000D01*
X705250Y357000D01*
X707500Y347000D01*
X712000Y337000D01*
X717250Y330330D01*
X722500Y327000D01*
X727750D01*
X733000Y330330D01*
X737500Y335330D01*
X741250Y342000D01*
G01X797740Y327000D02*
X767740D01*
Y427000D01*
X797740D01*
G01X785740Y378670D02*
X767740D01*
G01X828730Y327000D02*
Y427000D01*
X857230D01*
G01X846730Y378670D02*
X828730D01*
G01X888970Y410330D02*
X893470Y420330D01*
X898720Y425330D01*
X904720Y427000D01*
X912220Y423670D01*
X917470Y415330D01*
X918970Y405330D01*
X918220Y395330D01*
X915220Y387000D01*
X900220Y370330D01*
X893470Y358670D01*
X888970Y342000D01*
X887470Y327000D01*
X918970D01*
G01X953710Y360330D02*
X973210D01*
G01X1008700Y327000D02*
Y427000D01*
X1026700D01*
X1032700Y422000D01*
X1037200Y410330D01*
X1038700Y397000D01*
X1037200Y383670D01*
X1033450Y373670D01*
X1026700Y368660D01*
X1008700D01*
G01X390000Y707000D02*
Y807000D01*
X409500Y723670D01*
X429000Y807000D01*
Y707000D01*
G01X483240D02*
Y773660D01*
G01Y762000D02*
X480240Y768670D01*
X475740Y772000D01*
X470490Y773660D01*
X465240Y770330D01*
X460740Y763670D01*
X457740Y753670D01*
X456240Y740330D01*
X457740Y727000D01*
X460740Y717000D01*
X465240Y710330D01*
X470490Y707000D01*
X475740Y708670D01*
X480240Y713670D01*
X483240Y720330D01*
G01X519480Y682000D02*
X524730Y675330D01*
X530730Y673670D01*
X535980Y675330D01*
X540480Y683670D01*
X543480Y695330D01*
Y773660D01*
G01Y760330D02*
X540480Y767000D01*
X535980Y772000D01*
X530730Y773660D01*
X524730Y770330D01*
X520980Y763670D01*
X517980Y752000D01*
X516480Y740330D01*
X517230Y730330D01*
X520230Y718660D01*
X524730Y710330D01*
X530730Y707000D01*
X535230Y708670D01*
X540480Y715330D01*
X543480Y722000D01*
G01X603720Y807000D02*
Y707000D01*
G01Y722000D02*
X600720Y713670D01*
X596220Y708670D01*
X590970Y707000D01*
X584970Y710330D01*
X580470Y718660D01*
X577470Y728670D01*
X576720Y740330D01*
X577470Y752000D01*
X580470Y762000D01*
X584970Y770330D01*
X590970Y773660D01*
X596220Y772000D01*
X599970Y768670D01*
X603720Y762000D01*
G01X663960Y707000D02*
Y773660D01*
G01Y762000D02*
X660960Y768670D01*
X656460Y772000D01*
X651210Y773660D01*
X645960Y770330D01*
X641460Y763670D01*
X638460Y753670D01*
X636960Y740330D01*
X638460Y727000D01*
X641460Y717000D01*
X645960Y710330D01*
X651210Y707000D01*
X656460Y708670D01*
X660960Y713670D01*
X663960Y720330D01*
G01X710700Y707000D02*
Y807000D01*
G01X759690Y752000D02*
X783690D01*
X781440Y763670D01*
X777690Y770330D01*
X772440Y773660D01*
X767190Y772000D01*
X762690Y767000D01*
X759690Y755330D01*
X758190Y745330D01*
Y735330D01*
X759690Y725330D01*
X763440Y715330D01*
X767940Y708670D01*
X773190Y707000D01*
X778440Y710330D01*
X783690Y720330D01*
G01X818430Y707000D02*
Y773660D01*
G01Y757000D02*
X821430Y765330D01*
X825930Y772000D01*
X831930Y773660D01*
X837180Y772000D01*
X841680Y765330D01*
X843930Y753670D01*
Y707000D01*
G01X904920D02*
Y773660D01*
G01Y762000D02*
X901920Y768670D01*
X897420Y772000D01*
X892170Y773660D01*
X886920Y770330D01*
X882420Y763670D01*
X879420Y753670D01*
X877920Y740330D01*
X879420Y727000D01*
X882420Y717000D01*
X886920Y710330D01*
X892170Y707000D01*
X897420Y708670D01*
X901920Y713670D01*
X904920Y720330D01*
G54D15*
X336000Y3120000D03*
Y3719440D03*
X3675000Y265560D03*
Y865000D03*
G54D25*
G01X1383000Y261000D02*
X1280000D01*
X1233000Y308000D01*
Y754670D01*
X972670Y1015000D01*
X349000D01*
X309000Y1055000D01*
Y1144000D01*
G01X539000D02*
X965070D01*
X1374000Y735070D01*
Y548000D01*
G01X424000Y1709000D02*
Y1907000D01*
X464000Y1947000D01*
X1254000D01*
X1272000Y1965000D01*
G01X1266000Y2212000D02*
X844000D01*
X807000Y2249000D01*
Y2755000D01*
G01X234000Y2256000D02*
Y2086000D01*
G01X454000Y2351000D02*
X670000D01*
G01X336000Y3719440D02*
X592440D01*
G01X1523000Y959000D02*
Y1179000D01*
G01X926000Y1346000D02*
Y1261000D01*
X966000Y1221000D01*
X1075000D01*
X1243000Y1053000D01*
G01X1713000Y1179000D02*
Y994000D01*
X1564000Y845000D01*
Y548000D01*
G01X1146000Y1441000D02*
X1239000D01*
X1279000Y1481000D01*
Y1768000D01*
X1272000Y1775000D01*
G01X1007000Y1844000D02*
X1076000Y1775000D01*
X1272000D01*
G01X926000Y1536000D02*
Y1636000D01*
X966000Y1676000D01*
X1065000D01*
G01X1468000Y2779000D02*
Y2652000D01*
X1428000Y2612000D01*
X1369000D01*
X1329000Y2572000D01*
Y2492000D01*
G01X2087000Y2423000D02*
X2080000Y2416000D01*
X1685000D01*
X1645000Y2376000D01*
Y2252000D01*
X1605000Y2212000D01*
X1456000D01*
G01X1139000Y2492000D02*
Y2717000D01*
X1101000Y2755000D01*
X997000D01*
G01X1191000Y3062000D02*
X1084000D01*
G01D02*
Y3421200D01*
X1048200Y3457000D01*
X963000D01*
G01X1084000Y3062000D02*
X1027000Y3005000D01*
X920000D01*
G01X1191000Y3062000D02*
Y3205000D01*
X1420210Y3434210D01*
X1476790D01*
X1710000Y3201000D01*
Y3071000D01*
G01X1450000Y3300000D02*
Y3232300D01*
X1568000Y3114300D01*
Y2921000D01*
X1608000Y2881000D01*
X1710000D01*
G01X1381000Y3062000D02*
Y2943000D01*
X1351000Y2913000D01*
X1318000D01*
X1278000Y2873000D01*
Y2779000D01*
G01X1649000Y3411000D02*
X1726300D01*
X1728300Y3409000D01*
X1811000D01*
G01X1810000Y3753000D02*
X1706300D01*
X1704300Y3755000D01*
X1386000D01*
G01X2329000Y417000D02*
Y603000D01*
X2369000Y643000D01*
X2517000D01*
X2518000Y644000D01*
G01X1752000Y606000D02*
X1845000Y513000D01*
Y361000D01*
G01X2244500Y861000D02*
Y1035500D01*
X2177000Y1103000D01*
Y1192000D01*
G01X2316000Y1748000D02*
X2398700D01*
X2402500Y1744200D01*
X2493000D01*
X2526800Y1778000D01*
X2632000D01*
G01X2092290Y1490710D02*
X2287710D01*
X2316000Y1519000D01*
Y1748000D01*
G01X2632000Y1588000D02*
X2644000Y1576000D01*
Y1443000D01*
X2604000Y1403000D01*
X2131870D01*
X2017000Y1288130D01*
Y1219000D01*
X1977000Y1179000D01*
X1713000D01*
G01X2982000Y1313000D02*
X2784000D01*
X2663000Y1192000D01*
X2367000D01*
G01X2087000Y2423000D02*
Y2943000D01*
X2063000Y2967000D01*
G01X2609000Y2490000D02*
X2464200D01*
X2397200Y2423000D01*
X2087000D01*
G01X2001000Y3409000D02*
Y3303800D01*
X2071800Y3233000D01*
G01X2296000Y3179000D02*
Y3007000D01*
X2256000Y2967000D01*
X2063000D01*
G01D02*
X1939000D01*
X1930000Y2976000D01*
G01X1856000Y3235000D02*
X1921000Y3170000D01*
Y3047700D01*
X1930000Y3038700D01*
Y2976000D01*
G01X2000000Y3753000D02*
Y3515200D01*
X2001000Y3514200D01*
Y3409000D01*
G01X2296000Y3369000D02*
Y3470800D01*
X2374000Y3548800D01*
Y3654000D01*
G01X2708000Y644000D02*
Y538800D01*
X2734000Y512800D01*
Y370000D01*
G01X2924000D02*
X3111000D01*
X3151000Y410000D01*
Y536000D01*
X3148000Y539000D01*
G01X2935000Y823000D02*
Y711000D01*
X2954000Y692000D01*
X3290200D01*
X3338000Y644200D01*
Y539000D01*
G01X3247000Y823000D02*
X3141800D01*
X3095000Y869800D01*
Y973000D01*
X3055000Y1013000D01*
X2935000D01*
G01X2615000Y1012000D02*
X2682700D01*
X2683700Y1013000D01*
X2935000D01*
G01X3076000Y1904000D02*
Y1881500D01*
X3002870Y1808370D01*
X2831340D01*
X2733710Y1906000D01*
X2605000D01*
X2565000Y1946000D01*
Y2080000D01*
G01X3266000Y1904000D02*
Y1768000D01*
X3226000Y1728000D01*
X3106000D01*
X3066000Y1688000D01*
Y1582000D01*
G01X2632000Y1588000D02*
X2793000D01*
G01X3517000Y1364000D02*
X3356000D01*
X3305000Y1313000D01*
X3172000D01*
G01X3302800Y2050000D02*
X3246000D01*
X3199000Y2097000D01*
G01X2565000Y2270000D02*
X2587500D01*
G01X2994350Y2321350D02*
X2932700Y2383000D01*
X2797300D01*
G01D02*
Y2450700D01*
X2522000Y2726000D01*
G01X2797300Y2383000D02*
X2605000D01*
X2565000Y2343000D01*
Y2270000D01*
G01X3258000Y2452000D02*
X3175300D01*
X3092300Y2535000D01*
X2983000D01*
G01D02*
X2844880D01*
X2804880Y2575000D01*
Y2723120D01*
X2757000Y2771000D01*
G01X3008000Y3005000D02*
Y2854000D01*
X2983000Y2829000D01*
Y2715000D01*
G01X2564000Y3654000D02*
Y3219000D01*
X2547000Y3202000D01*
Y3196000D01*
X2507000Y3156000D01*
X2481000D01*
X2441000Y3116000D01*
Y2923000D01*
G01X2631000D02*
Y3028200D01*
X2654000Y3051200D01*
Y3061000D01*
X2719000Y3126000D01*
Y3213000D01*
G01X3046000Y3356000D02*
X3163000D01*
X3342000Y3177000D01*
X3474000D01*
G01X2719000Y3403000D02*
X2900000D01*
X2940000Y3443000D01*
Y3684500D01*
X2942500Y3687000D01*
G01X3675000Y865000D02*
X3424000D01*
X3382000Y823000D01*
X3247000D01*
G01X3517000Y1174000D02*
X3308290D01*
X3247000Y1112710D01*
Y1013000D01*
G01X3541000Y1626000D02*
X3448000D01*
X3404000Y1582000D01*
X3256000D01*
G01X3761000Y1721000D02*
X3658500D01*
X3563500Y1816000D01*
X3541000D01*
G01X3448000Y2452000D02*
Y2544000D01*
X3408000Y2584000D01*
X3332000D01*
X3292000Y2624000D01*
Y2726000D01*
G01X3723000Y2487000D02*
Y2373000D01*
X3695000Y2345000D01*
Y2220000D01*
G01X3266000Y1904000D02*
Y2013200D01*
X3302800Y2050000D01*
G01D02*
X3569800D01*
X3589800Y2030000D01*
X3695000D01*
G01X3541000Y1816000D02*
X3455800D01*
X3413000Y1858800D01*
Y1906000D01*
G01X3482000Y2726000D02*
X3568800D01*
X3617800Y2677000D01*
X3723000D01*
G54D16*
X807000Y2755000D03*
X230000Y2779000D03*
X420000D03*
X730000Y3005000D03*
X920000D03*
X1573000Y261000D03*
X1383000D03*
X1374000Y548000D03*
X1564000D03*
X1139000Y2492000D03*
X1329000D03*
X1456000Y2212000D03*
X1266000D03*
X1381000Y3062000D03*
X1191000D03*
X1468000Y2779000D03*
X1278000D03*
X997000Y2755000D03*
X1196000Y3755000D03*
X1386000D03*
X2035000Y361000D03*
X1845000D03*
X2367000Y1192000D03*
X2177000D03*
X2441000Y2923000D03*
X2374000Y3654000D03*
X1810000Y3753000D03*
X2000000D03*
X2001000Y3409000D03*
X1811000D03*
X3148000Y539000D03*
X2924000Y370000D03*
X2734000D03*
X2708000Y644000D03*
X2518000D03*
X3172000Y1313000D03*
X2982000D03*
X3066000Y1582000D03*
X3076000Y1904000D03*
X2631000Y2923000D03*
X2564000Y3654000D03*
X3338000Y539000D03*
X3256000Y1582000D03*
X3258000Y2452000D03*
X3448000D03*
X3266000Y1904000D03*
X3292000Y2726000D03*
X3482000D03*
G54D26*
G01X420000Y2779000D02*
Y2658000D01*
X375000Y2613000D01*
X292000D01*
X234000Y2555000D01*
Y2446000D01*
G01X730000Y3005000D02*
X618000D01*
X588000Y2975000D01*
Y2811000D01*
X556000Y2779000D01*
X420000D01*
G01X1858000Y1748000D02*
X1837000Y1727000D01*
X1713000D01*
X1668000Y1772000D01*
Y1825000D01*
X1623000Y1870000D01*
X1492000D01*
G01X1618000Y1399000D02*
X1915600D01*
X1924300Y1390300D01*
G01D02*
Y1504000D01*
X1858000Y1570300D01*
Y1748000D01*
G01X1924300Y1390300D02*
X1927000Y1393000D01*
G01X2921000Y1957000D02*
Y2043000D01*
X3065000Y2187000D01*
X3069800D01*
G01D02*
X3158180D01*
X3160680Y2189500D01*
X3237320D01*
X3239820Y2187000D01*
X3522000D01*
G01X3069800D02*
X3057800Y2175000D01*
X2785000D01*
G01X3827000Y3082000D02*
X3694000D01*
G54D17*
X1618000Y1399000D03*
X1523000Y1179000D03*
X1713000D03*
G54D27*
G01X336000Y3120000D02*
X533600D01*
X592000Y3178400D01*
Y3487000D01*
X657000Y3552000D01*
X743000D01*
G01X336000Y3120000D02*
Y2975000D01*
X230000Y2869000D01*
Y2779000D01*
G01X1196000Y3755000D02*
X810000D01*
X745000Y3690000D01*
Y3554000D01*
X743000Y3552000D01*
G01X2035000Y218000D02*
X1976000Y159000D01*
X1781200D01*
X1679200Y261000D01*
X1573000D01*
G01X1196000Y3755000D02*
Y3515000D01*
G01X2035000Y361000D02*
Y218000D01*
G01X2329000Y227000D02*
X2044000D01*
X2035000Y218000D01*
G01X3168170Y149000D02*
X2664000D01*
X2586000Y227000D01*
X2329000D01*
G01X2035000Y361000D02*
Y478700D01*
X2075000Y518700D01*
Y695300D01*
X2009500Y760800D01*
Y861000D01*
G01X3279000Y342000D02*
X3168170Y231170D01*
Y149000D01*
G01D02*
X3360840D01*
X3477400Y265560D01*
X3675000D01*
G01X3188000Y3005000D02*
X3305000D01*
X3323000Y2987000D01*
X3474000D01*
G01X3099500Y3217500D02*
X3188000Y3129000D01*
Y3005000D01*
G01X3177500Y3687000D02*
Y3495500D01*
X3279000Y3394000D01*
G01X3608000Y3687000D02*
X3177500D01*
G01X3764000Y3394000D02*
Y3531000D01*
X3608000Y3687000D01*
G54D18*
X2329000Y227000D03*
Y417000D03*
X2296000Y3179000D03*
Y3369000D03*
X2935000Y1013000D03*
Y823000D03*
X2632000Y1588000D03*
Y1778000D03*
X2719000Y3213000D03*
Y3403000D03*
X3247000Y823000D03*
Y1013000D03*
X3517000Y1174000D03*
Y1364000D03*
X3695000Y2220000D03*
Y2030000D03*
X3723000Y2487000D03*
Y2677000D03*
G54D19*
X2009500Y861000D03*
X2244500D03*
X3177500Y3687000D03*
X2942500D03*
M02*
